<svg width="24" height="40" viewBox="0 0 24 40" fill="none" xmlns="http://www.w3.org/2000/svg">
<path d="M0.25955 20.3963L23.4596 11.8346C23.7211 11.7381 24 11.9283 24 12.2032V19.2335C24 19.3984 23.8955 19.5458 23.7383 19.6028L5.26172 26.3018C5.10447 26.3588 5 26.5062 5 26.6711V29.7516C5 30.0301 4.71419 30.2206 4.45144 30.1171L0.251444 28.4639C0.0995808 28.404 0 28.2593 0 28.0984V20.7649C0 20.6008 0.10343 20.4539 0.25955 20.3963Z" fill="#008197"/>
<path d="M23.7404 31.4129L0.540449 39.9746C0.278949 40.0711 0 39.8809 0 39.606V32.5757C0 32.4108 0.104467 32.2634 0.261718 32.2064L18.7383 25.5074C18.8955 25.4504 19 25.303 19 25.1381V22.0576C19 21.7791 19.2858 21.5886 19.5486 21.6921L23.7486 23.3454C23.9004 23.4052 24 23.5499 24 23.7108V31.0444C24 31.2084 23.8966 31.3553 23.7404 31.4129Z" fill="#EE9B0F"/>
<path d="M23.7404 7.79455L0.540449 16.3562C0.278949 16.4527 0 16.2625 0 15.9876V8.95566C0 8.79157 0.103429 8.64469 0.259551 8.58708L23.4596 0.0254197C23.7211 -0.071084 24 0.119153 24 0.393995V7.42597C24 7.59006 23.8966 7.73694 23.7404 7.79455Z" fill="#161616"/>
</svg>
