<svg width="27" height="27" viewBox="0 0 27 27" fill="none" xmlns="http://www.w3.org/2000/svg">
<g clip-path="url(#clip0_49_484)">
<path d="M10.125 12.375C10.125 13.2701 10.4806 14.1286 11.1135 14.7615C11.7464 15.3944 12.6049 15.75 13.5 15.75C14.3951 15.75 15.2536 15.3944 15.8865 14.7615C16.5194 14.1286 16.875 13.2701 16.875 12.375C16.875 11.4799 16.5194 10.6214 15.8865 9.98851C15.2536 9.35558 14.3951 9 13.5 9C12.6049 9 11.7464 9.35558 11.1135 9.98851C10.4806 10.6214 10.125 11.4799 10.125 12.375Z" stroke="white" stroke-width="1.5" stroke-linecap="round" stroke-linejoin="round"/>
<path d="M19.8641 18.7388L15.0908 23.5122C14.6689 23.9336 14.0969 24.1704 13.5006 24.1704C12.9042 24.1704 12.3323 23.9336 11.9104 23.5122L7.13588 18.7388C5.87725 17.4801 5.02013 15.8765 4.6729 14.1306C4.32567 12.3848 4.50393 10.5752 5.18513 8.93074C5.86634 7.28623 7.01989 5.88065 8.49992 4.89174C9.97995 3.90283 11.72 3.375 13.5 3.375C15.28 3.375 17.0201 3.90283 18.5001 4.89174C19.9801 5.88065 21.1337 7.28623 21.8149 8.93074C22.4961 10.5752 22.6743 12.3848 22.3271 14.1306C21.9799 15.8765 21.1228 17.4801 19.8641 18.7388Z" stroke="white" stroke-width="1.5" stroke-linecap="round" stroke-linejoin="round"/>
</g>
<defs>
<clipPath id="clip0_49_484">
<rect width="27" height="27" fill="white"/>
</clipPath>
</defs>
</svg>
